<svg width="119" height="44" viewBox="0 0 119 44" fill="none" xmlns="http://www.w3.org/2000/svg">
<g clip-path="url(#clip0_64_607)">
<path d="M100.64 41.1H3.56982L17.5598 2.5H114.63L100.64 41.1Z" fill="white" stroke="#231815" stroke-width="5" stroke-miterlimit="10"/>
<path d="M45.0998 15.83H40.0898V29.45H36.7198V15.83H31.7798V13.1H45.0998V15.83Z" fill="#231815"/>
<path d="M56.86 22.36H50.39V26.74H57.98V29.45H47.02V13.1H57.96V15.83H50.39V19.73H56.86V22.37V22.36Z" fill="#231815"/>
<path d="M68.4398 25.16C68.4398 24.52 68.2198 24.04 67.7698 23.69C67.3198 23.35 66.5098 22.99 65.3398 22.61C64.1698 22.23 63.2498 21.86 62.5698 21.49C60.7098 20.49 59.7798 19.14 59.7798 17.44C59.7798 16.56 60.0298 15.77 60.5298 15.08C61.0298 14.39 61.7398 13.85 62.6698 13.46C63.5998 13.07 64.6498 12.88 65.8098 12.88C66.9698 12.88 68.0198 13.09 68.9298 13.51C69.8398 13.93 70.5498 14.53 71.0598 15.3C71.5598 16.07 71.8198 16.95 71.8198 17.93H68.4498C68.4498 17.18 68.2098 16.6 67.7398 16.18C67.2698 15.76 66.6098 15.56 65.7498 15.56C64.8898 15.56 64.2898 15.73 63.8298 16.08C63.3698 16.43 63.1398 16.89 63.1398 17.46C63.1398 17.99 63.4098 18.44 63.9398 18.8C64.4798 19.16 65.2598 19.5 66.2998 19.81C68.2198 20.39 69.6098 21.1 70.4898 21.96C71.3698 22.82 71.7998 23.88 71.7998 25.15C71.7998 26.57 71.2598 27.67 70.1898 28.48C69.1198 29.28 67.6798 29.69 65.8698 29.69C64.6098 29.69 63.4698 29.46 62.4298 29C61.3998 28.54 60.6098 27.91 60.0698 27.11C59.5298 26.31 59.2598 25.38 59.2598 24.32H62.6398C62.6398 26.12 63.7198 27.03 65.8698 27.03C66.6698 27.03 67.2998 26.87 67.7498 26.54C68.1998 26.21 68.4198 25.76 68.4198 25.18L68.4398 25.16Z" fill="#231815"/>
<path d="M86.4099 15.83H81.3998V29.45H78.0298V15.83H73.0898V13.1H86.4099V15.83Z" fill="#231815"/>
</g>
<defs>
<clipPath id="clip0_64_607">
<rect width="118.2" height="43.6" fill="white"/>
</clipPath>
</defs>
</svg>
